<svg width="194" height="226" viewBox="0 0 194 226" fill="none" xmlns="http://www.w3.org/2000/svg">
<path d="M95 10.625L84.4 0H42V85H148V10.625H95ZM132.1 69.0625H100.3V26.5625H118.85L132.1 39.8438V69.0625ZM115.564 34.5312L124.15 43.1375V61.0938H108.25V34.5312H115.564Z" fill="white"/>
<path d="M171 185.625L166.4 181H148V218H194V185.625H171ZM175.6 208.75H157.2V204.125H175.6V208.75ZM184.8 199.5H157.2V194.875H184.8V199.5Z" fill="url(#paint0_linear_107_2)"/>
<path d="M0.0262506 173L0 226H42V188.9L26.25 173H0.0262506ZM23.625 191.55V176.975L38.0625 191.55H23.625Z" fill="url(#paint1_linear_107_2)"/>
<path d="M68 200C68 204.418 71.5817 208 76 208C80.4183 208 84 204.418 84 200C84 195.582 80.4183 192 76 192C71.5817 192 68 195.582 68 200ZM106 200C106 204.418 109.582 208 114 208C118.418 208 122 204.418 122 200C122 195.582 118.418 192 114 192C109.582 192 106 195.582 106 200ZM76 201.5H114V198.5H76V201.5Z" fill="#FAFAFA"/>
<defs>
<linearGradient id="paint0_linear_107_2" x1="199.75" y1="218" x2="163.813" y2="218" gradientUnits="userSpaceOnUse">
<stop stop-color="#FAFAFA"/>
</linearGradient>
<linearGradient id="paint1_linear_107_2" x1="47.25" y1="226" x2="14.4375" y2="226" gradientUnits="userSpaceOnUse">
<stop stop-color="#FAFAFA"/>
</linearGradient>
</defs>
</svg>
