<svg width="731" height="112" viewBox="0 0 731 112" fill="none" xmlns="http://www.w3.org/2000/svg">
<path d="M53 16.625L42.4 6H0V91H106V16.625H53ZM90.1 75.0625H58.3V32.5625H76.85L90.1 45.8438V75.0625ZM73.564 40.5312L82.15 49.1375V67.0938H66.25V40.5312H73.564Z" fill="white"/>
<path d="M190.364 19.2557C189.04 19.2557 187.895 18.9744 186.929 18.4119C185.969 17.8437 185.227 17.054 184.705 16.0426C184.182 15.0256 183.92 13.8466 183.92 12.5057C183.92 11.1534 184.182 9.97159 184.705 8.96023C185.227 7.94318 185.969 7.15341 186.929 6.59091C187.895 6.02273 189.04 5.73864 190.364 5.73864C191.688 5.73864 192.83 6.02273 193.79 6.59091C194.756 7.15341 195.5 7.94318 196.023 8.96023C196.545 9.97159 196.807 11.1534 196.807 12.5057C196.807 13.8466 196.545 15.0256 196.023 16.0426C195.5 17.054 194.756 17.8437 193.79 18.4119C192.83 18.9744 191.688 19.2557 190.364 19.2557ZM190.381 16.4432C190.983 16.4432 191.486 16.2727 191.889 15.9318C192.293 15.5852 192.597 15.1136 192.801 14.517C193.011 13.9205 193.116 13.2415 193.116 12.4801C193.116 11.7188 193.011 11.0398 192.801 10.4432C192.597 9.84659 192.293 9.375 191.889 9.02841C191.486 8.68182 190.983 8.50852 190.381 8.50852C189.773 8.50852 189.261 8.68182 188.847 9.02841C188.438 9.375 188.128 9.84659 187.918 10.4432C187.713 11.0398 187.611 11.7188 187.611 12.4801C187.611 13.2415 187.713 13.9205 187.918 14.517C188.128 15.1136 188.438 15.5852 188.847 15.9318C189.261 16.2727 189.773 16.4432 190.381 16.4432ZM205.082 19.2557C203.759 19.2557 202.614 18.9744 201.648 18.4119C200.688 17.8437 199.946 17.054 199.423 16.0426C198.901 15.0256 198.639 13.8466 198.639 12.5057C198.639 11.1534 198.901 9.97159 199.423 8.96023C199.946 7.94318 200.688 7.15341 201.648 6.59091C202.614 6.02273 203.759 5.73864 205.082 5.73864C206.406 5.73864 207.548 6.02273 208.509 6.59091C209.474 7.15341 210.219 7.94318 210.741 8.96023C211.264 9.97159 211.526 11.1534 211.526 12.5057C211.526 13.8466 211.264 15.0256 210.741 16.0426C210.219 17.054 209.474 17.8437 208.509 18.4119C207.548 18.9744 206.406 19.2557 205.082 19.2557ZM205.099 16.4432C205.702 16.4432 206.205 16.2727 206.608 15.9318C207.011 15.5852 207.315 15.1136 207.52 14.517C207.73 13.9205 207.835 13.2415 207.835 12.4801C207.835 11.7188 207.73 11.0398 207.52 10.4432C207.315 9.84659 207.011 9.375 206.608 9.02841C206.205 8.68182 205.702 8.50852 205.099 8.50852C204.491 8.50852 203.98 8.68182 203.565 9.02841C203.156 9.375 202.847 9.84659 202.636 10.4432C202.432 11.0398 202.33 11.7188 202.33 12.4801C202.33 13.2415 202.432 13.9205 202.636 14.517C202.847 15.1136 203.156 15.5852 203.565 15.9318C203.98 16.2727 204.491 16.4432 205.099 16.4432ZM213.886 23.9091V5.90909H217.466V8.10795H217.628C217.787 7.75568 218.017 7.39773 218.318 7.03409C218.625 6.66477 219.023 6.35795 219.511 6.11364C220.006 5.86364 220.619 5.73864 221.352 5.73864C222.307 5.73864 223.188 5.98864 223.994 6.48864C224.801 6.98295 225.446 7.73011 225.929 8.73011C226.412 9.72443 226.653 10.9716 226.653 12.4716C226.653 13.9318 226.418 15.1648 225.946 16.1705C225.48 17.1705 224.844 17.929 224.037 18.446C223.236 18.9574 222.338 19.2131 221.344 19.2131C220.639 19.2131 220.04 19.0966 219.545 18.8636C219.057 18.6307 218.656 18.3381 218.344 17.9858C218.031 17.6278 217.793 17.267 217.628 16.9034H217.517V23.9091H213.886ZM217.44 12.4545C217.44 13.233 217.548 13.9119 217.764 14.4915C217.98 15.071 218.293 15.5227 218.702 15.8466C219.111 16.1648 219.608 16.3239 220.193 16.3239C220.784 16.3239 221.284 16.1619 221.693 15.8381C222.102 15.5085 222.412 15.054 222.622 14.4744C222.838 13.8892 222.946 13.2159 222.946 12.4545C222.946 11.6989 222.841 11.0341 222.631 10.4602C222.42 9.88636 222.111 9.4375 221.702 9.11364C221.293 8.78977 220.79 8.62784 220.193 8.62784C219.602 8.62784 219.102 8.78409 218.693 9.09659C218.29 9.40909 217.98 9.85227 217.764 10.4261C217.548 11 217.44 11.6761 217.44 12.4545ZM239.966 9.64205L236.642 9.84659C236.585 9.5625 236.463 9.30682 236.276 9.07955C236.088 8.84659 235.841 8.66193 235.534 8.52557C235.233 8.38352 234.872 8.3125 234.452 8.3125C233.889 8.3125 233.415 8.43182 233.028 8.67045C232.642 8.90341 232.449 9.21591 232.449 9.60795C232.449 9.92045 232.574 10.1847 232.824 10.4006C233.074 10.6165 233.503 10.7898 234.111 10.9205L236.48 11.3977C237.753 11.6591 238.702 12.0795 239.327 12.6591C239.952 13.2386 240.264 14 240.264 14.9432C240.264 15.8011 240.011 16.554 239.506 17.2017C239.006 17.8494 238.318 18.3551 237.443 18.7188C236.574 19.0767 235.571 19.2557 234.435 19.2557C232.702 19.2557 231.321 18.8949 230.293 18.1733C229.27 17.446 228.67 16.4574 228.494 15.2074L232.065 15.0199C232.173 15.5483 232.435 15.9517 232.849 16.2301C233.264 16.5028 233.795 16.6392 234.443 16.6392C235.08 16.6392 235.591 16.517 235.977 16.2727C236.369 16.0227 236.568 15.7017 236.574 15.3097C236.568 14.9801 236.429 14.7102 236.156 14.5C235.884 14.2841 235.463 14.1193 234.895 14.0057L232.628 13.554C231.349 13.2983 230.398 12.8551 229.773 12.2244C229.153 11.5937 228.844 10.7898 228.844 9.8125C228.844 8.97159 229.071 8.24716 229.526 7.6392C229.986 7.03125 230.631 6.5625 231.46 6.23295C232.295 5.90341 233.273 5.73864 234.392 5.73864C236.045 5.73864 237.347 6.08807 238.295 6.78693C239.25 7.4858 239.807 8.4375 239.966 9.64205ZM246.496 16.6136L246.403 17.5511C246.329 18.3011 246.187 19.0483 245.977 19.7926C245.772 20.5426 245.556 21.2216 245.329 21.8295C245.107 22.4375 244.928 22.9148 244.792 23.2614H242.44C242.525 22.9261 242.641 22.4574 242.789 21.8551C242.937 21.2585 243.076 20.5881 243.207 19.8438C243.337 19.0994 243.42 18.3409 243.454 17.5682L243.496 16.6136H246.496ZM265.442 9.64205L262.119 9.84659C262.062 9.5625 261.94 9.30682 261.752 9.07955C261.565 8.84659 261.317 8.66193 261.011 8.52557C260.71 8.38352 260.349 8.3125 259.928 8.3125C259.366 8.3125 258.891 8.43182 258.505 8.67045C258.119 8.90341 257.925 9.21591 257.925 9.60795C257.925 9.92045 258.05 10.1847 258.3 10.4006C258.55 10.6165 258.979 10.7898 259.587 10.9205L261.957 11.3977C263.229 11.6591 264.178 12.0795 264.803 12.6591C265.428 13.2386 265.741 14 265.741 14.9432C265.741 15.8011 265.488 16.554 264.982 17.2017C264.482 17.8494 263.795 18.3551 262.92 18.7188C262.05 19.0767 261.048 19.2557 259.911 19.2557C258.178 19.2557 256.798 18.8949 255.769 18.1733C254.746 17.446 254.147 16.4574 253.971 15.2074L257.542 15.0199C257.65 15.5483 257.911 15.9517 258.326 16.2301C258.741 16.5028 259.272 16.6392 259.92 16.6392C260.556 16.6392 261.067 16.517 261.454 16.2727C261.846 16.0227 262.045 15.7017 262.05 15.3097C262.045 14.9801 261.906 14.7102 261.633 14.5C261.36 14.2841 260.94 14.1193 260.371 14.0057L258.104 13.554C256.826 13.2983 255.874 12.8551 255.249 12.2244C254.63 11.5937 254.32 10.7898 254.32 9.8125C254.32 8.97159 254.548 8.24716 255.002 7.6392C255.462 7.03125 256.107 6.5625 256.937 6.23295C257.772 5.90341 258.749 5.73864 259.869 5.73864C261.522 5.73864 262.823 6.08807 263.772 6.78693C264.727 7.4858 265.283 8.4375 265.442 9.64205ZM273.942 19.2557C272.618 19.2557 271.473 18.9744 270.507 18.4119C269.547 17.8437 268.805 17.054 268.283 16.0426C267.76 15.0256 267.499 13.8466 267.499 12.5057C267.499 11.1534 267.76 9.97159 268.283 8.96023C268.805 7.94318 269.547 7.15341 270.507 6.59091C271.473 6.02273 272.618 5.73864 273.942 5.73864C275.266 5.73864 276.408 6.02273 277.368 6.59091C278.334 7.15341 279.078 7.94318 279.601 8.96023C280.124 9.97159 280.385 11.1534 280.385 12.5057C280.385 13.8466 280.124 15.0256 279.601 16.0426C279.078 17.054 278.334 17.8437 277.368 18.4119C276.408 18.9744 275.266 19.2557 273.942 19.2557ZM273.959 16.4432C274.561 16.4432 275.064 16.2727 275.467 15.9318C275.871 15.5852 276.175 15.1136 276.379 14.517C276.589 13.9205 276.695 13.2415 276.695 12.4801C276.695 11.7188 276.589 11.0398 276.379 10.4432C276.175 9.84659 275.871 9.375 275.467 9.02841C275.064 8.68182 274.561 8.50852 273.959 8.50852C273.351 8.50852 272.839 8.68182 272.425 9.02841C272.016 9.375 271.706 9.84659 271.496 10.4432C271.291 11.0398 271.189 11.7188 271.189 12.4801C271.189 13.2415 271.291 13.9205 271.496 14.517C271.706 15.1136 272.016 15.5852 272.425 15.9318C272.839 16.2727 273.351 16.4432 273.959 16.4432ZM282.746 19V5.90909H286.206V8.21875H286.359C286.632 7.4517 287.087 6.84659 287.723 6.40341C288.359 5.96023 289.121 5.73864 290.007 5.73864C290.905 5.73864 291.669 5.96307 292.3 6.41193C292.93 6.85511 293.351 7.45739 293.561 8.21875H293.697C293.964 7.46875 294.447 6.86932 295.146 6.42045C295.851 5.96591 296.683 5.73864 297.643 5.73864C298.865 5.73864 299.857 6.12784 300.618 6.90625C301.385 7.67898 301.768 8.77557 301.768 10.196V19H298.146V10.9119C298.146 10.1847 297.953 9.6392 297.567 9.27557C297.18 8.91193 296.697 8.73011 296.118 8.73011C295.459 8.73011 294.945 8.94034 294.575 9.3608C294.206 9.77557 294.021 10.3239 294.021 11.0057V19H290.501V10.8352C290.501 10.1932 290.317 9.68182 289.947 9.30114C289.584 8.92045 289.104 8.73011 288.507 8.73011C288.104 8.73011 287.74 8.83239 287.416 9.03693C287.098 9.2358 286.845 9.51705 286.658 9.88068C286.47 10.2386 286.376 10.6591 286.376 11.142V19H282.746ZM310.602 19.2557C309.256 19.2557 308.097 18.983 307.125 18.4375C306.159 17.8864 305.415 17.108 304.892 16.1023C304.369 15.0909 304.108 13.8949 304.108 12.5142C304.108 11.1676 304.369 9.9858 304.892 8.96875C305.415 7.9517 306.151 7.15909 307.099 6.59091C308.054 6.02273 309.173 5.73864 310.457 5.73864C311.321 5.73864 312.125 5.87784 312.869 6.15625C313.619 6.42898 314.273 6.84091 314.83 7.39205C315.392 7.94318 315.83 8.63636 316.142 9.47159C316.455 10.3011 316.611 11.2727 316.611 12.3864V13.3835H305.557V11.1335H313.193C313.193 10.6108 313.08 10.1477 312.852 9.74432C312.625 9.34091 312.31 9.02557 311.906 8.7983C311.509 8.56534 311.045 8.44886 310.517 8.44886C309.966 8.44886 309.477 8.5767 309.051 8.83239C308.631 9.08239 308.301 9.42045 308.062 9.84659C307.824 10.267 307.702 10.7358 307.696 11.2528V13.392C307.696 14.0398 307.815 14.5994 308.054 15.071C308.298 15.5426 308.642 15.9062 309.085 16.1619C309.528 16.4176 310.054 16.5455 310.662 16.5455C311.065 16.5455 311.435 16.4886 311.77 16.375C312.105 16.2614 312.392 16.0909 312.631 15.8636C312.869 15.6364 313.051 15.358 313.176 15.0284L316.534 15.25C316.364 16.0568 316.014 16.7614 315.486 17.3636C314.963 17.9602 314.287 18.4261 313.457 18.7614C312.634 19.0909 311.682 19.2557 310.602 19.2557ZM325.943 5.90909V8.63636H318.06V5.90909H325.943ZM319.849 2.77273H323.48V14.9773C323.48 15.3125 323.531 15.5739 323.634 15.7614C323.736 15.9432 323.878 16.071 324.06 16.1449C324.247 16.2187 324.463 16.2557 324.707 16.2557C324.878 16.2557 325.048 16.2415 325.219 16.2131C325.389 16.179 325.52 16.1534 325.611 16.1364L326.182 18.8381C326 18.8949 325.744 18.9602 325.415 19.0341C325.085 19.1136 324.685 19.1619 324.213 19.179C323.338 19.2131 322.571 19.0966 321.912 18.8295C321.259 18.5625 320.75 18.1477 320.386 17.5852C320.023 17.0227 319.844 16.3125 319.849 15.4545V2.77273ZM332.22 11.4318V19H328.589V1.54545H332.118V8.21875H332.271C332.567 7.44602 333.044 6.84091 333.703 6.40341C334.362 5.96023 335.189 5.73864 336.183 5.73864C337.092 5.73864 337.885 5.9375 338.561 6.33523C339.243 6.72727 339.771 7.29261 340.146 8.03125C340.527 8.7642 340.714 9.64205 340.709 10.6648V19H337.078V11.3125C337.084 10.5057 336.879 9.87784 336.464 9.42898C336.055 8.98011 335.482 8.75568 334.743 8.75568C334.249 8.75568 333.811 8.8608 333.43 9.07102C333.055 9.28125 332.76 9.58807 332.544 9.99148C332.334 10.3892 332.226 10.8693 332.22 11.4318ZM343.566 19V5.90909H347.197V19H343.566ZM345.39 4.22159C344.85 4.22159 344.387 4.04261 344.001 3.68466C343.62 3.32102 343.43 2.88636 343.43 2.38068C343.43 1.88068 343.62 1.4517 344.001 1.09375C344.387 0.730113 344.85 0.548295 345.39 0.548295C345.93 0.548295 346.39 0.730113 346.771 1.09375C347.157 1.4517 347.35 1.88068 347.35 2.38068C347.35 2.88636 347.157 3.32102 346.771 3.68466C346.39 4.04261 345.93 4.22159 345.39 4.22159ZM353.736 11.4318V19H350.105V5.90909H353.565V8.21875H353.719C354.009 7.45739 354.494 6.85511 355.176 6.41193C355.858 5.96307 356.685 5.73864 357.656 5.73864C358.565 5.73864 359.358 5.9375 360.034 6.33523C360.71 6.73295 361.236 7.30114 361.611 8.03977C361.986 8.77273 362.173 9.64773 362.173 10.6648V19H358.543V11.3125C358.548 10.5114 358.344 9.88636 357.929 9.4375C357.514 8.98295 356.943 8.75568 356.216 8.75568C355.727 8.75568 355.295 8.8608 354.92 9.07102C354.551 9.28125 354.261 9.58807 354.051 9.99148C353.847 10.3892 353.741 10.8693 353.736 11.4318ZM370.933 24.1818C369.756 24.1818 368.748 24.0199 367.907 23.696C367.072 23.3778 366.407 22.9432 365.913 22.392C365.418 21.8409 365.097 21.2216 364.95 20.5341L368.308 20.0824C368.41 20.3438 368.572 20.5881 368.793 20.8153C369.015 21.0426 369.308 21.2244 369.671 21.3608C370.04 21.5028 370.489 21.5739 371.018 21.5739C371.808 21.5739 372.458 21.3807 372.969 20.9943C373.487 20.6136 373.745 19.9744 373.745 19.0767V16.6818H373.592C373.433 17.0455 373.194 17.3892 372.876 17.7131C372.558 18.0369 372.148 18.3011 371.648 18.5057C371.148 18.7102 370.552 18.8125 369.859 18.8125C368.876 18.8125 367.981 18.5852 367.174 18.1307C366.373 17.6705 365.734 16.9687 365.256 16.0256C364.785 15.0767 364.549 13.8778 364.549 12.429C364.549 10.946 364.79 9.70739 365.273 8.71307C365.756 7.71875 366.398 6.97443 367.2 6.48011C368.006 5.9858 368.89 5.73864 369.85 5.73864C370.583 5.73864 371.197 5.86364 371.691 6.11364C372.185 6.35795 372.583 6.66477 372.884 7.03409C373.191 7.39773 373.427 7.75568 373.592 8.10795H373.728V5.90909H377.333V19.1278C377.333 20.2415 377.06 21.1733 376.515 21.9233C375.969 22.6733 375.214 23.2358 374.248 23.6108C373.288 23.9915 372.183 24.1818 370.933 24.1818ZM371.009 16.0852C371.594 16.0852 372.089 15.9403 372.492 15.6506C372.901 15.3551 373.214 14.9347 373.43 14.3892C373.651 13.8381 373.762 13.179 373.762 12.4119C373.762 11.6449 373.654 10.9801 373.438 10.4176C373.222 9.84943 372.91 9.40909 372.501 9.09659C372.092 8.78409 371.594 8.62784 371.009 8.62784C370.413 8.62784 369.91 8.78977 369.501 9.11364C369.092 9.43182 368.782 9.875 368.572 10.4432C368.362 11.0114 368.256 11.6676 368.256 12.4119C368.256 13.1676 368.362 13.821 368.572 14.3722C368.788 14.9176 369.097 15.3409 369.501 15.642C369.91 15.9375 370.413 16.0852 371.009 16.0852ZM388.359 19L384.797 5.90909H388.47L390.499 14.7045H390.618L392.732 5.90909H396.337L398.484 14.6534H398.595L400.589 5.90909H404.254L400.7 19H396.857L394.607 10.767H394.445L392.195 19H388.359ZM411.829 19.2557C410.482 19.2557 409.323 18.983 408.352 18.4375C407.386 17.8864 406.641 17.108 406.119 16.1023C405.596 15.0909 405.335 13.8949 405.335 12.5142C405.335 11.1676 405.596 9.9858 406.119 8.96875C406.641 7.9517 407.377 7.15909 408.326 6.59091C409.281 6.02273 410.4 5.73864 411.684 5.73864C412.548 5.73864 413.352 5.87784 414.096 6.15625C414.846 6.42898 415.499 6.84091 416.056 7.39205C416.619 7.94318 417.056 8.63636 417.369 9.47159C417.681 10.3011 417.837 11.2727 417.837 12.3864V13.3835H406.783V11.1335H414.42C414.42 10.6108 414.306 10.1477 414.079 9.74432C413.852 9.34091 413.536 9.02557 413.133 8.7983C412.735 8.56534 412.272 8.44886 411.744 8.44886C411.192 8.44886 410.704 8.5767 410.278 8.83239C409.857 9.08239 409.528 9.42045 409.289 9.84659C409.05 10.267 408.928 10.7358 408.923 11.2528V13.392C408.923 14.0398 409.042 14.5994 409.281 15.071C409.525 15.5426 409.869 15.9062 410.312 16.1619C410.755 16.4176 411.281 16.5455 411.888 16.5455C412.292 16.5455 412.661 16.4886 412.996 16.375C413.332 16.2614 413.619 16.0909 413.857 15.8636C414.096 15.6364 414.278 15.358 414.403 15.0284L417.761 15.25C417.59 16.0568 417.241 16.7614 416.712 17.3636C416.19 17.9602 415.513 18.4261 414.684 18.7614C413.86 19.0909 412.908 19.2557 411.829 19.2557ZM423.837 11.4318V19H420.207V5.90909H423.667V8.21875H423.82C424.11 7.45739 424.596 6.85511 425.278 6.41193C425.96 5.96307 426.786 5.73864 427.758 5.73864C428.667 5.73864 429.46 5.9375 430.136 6.33523C430.812 6.73295 431.337 7.30114 431.712 8.03977C432.087 8.77273 432.275 9.64773 432.275 10.6648V19H428.644V11.3125C428.65 10.5114 428.445 9.88636 428.031 9.4375C427.616 8.98295 427.045 8.75568 426.317 8.75568C425.829 8.75568 425.397 8.8608 425.022 9.07102C424.653 9.28125 424.363 9.58807 424.153 9.99148C423.948 10.3892 423.843 10.8693 423.837 11.4318ZM442.099 5.90909V8.63636H434.216V5.90909H442.099ZM436.006 2.77273H439.636V14.9773C439.636 15.3125 439.688 15.5739 439.79 15.7614C439.892 15.9432 440.034 16.071 440.216 16.1449C440.403 16.2187 440.619 16.2557 440.864 16.2557C441.034 16.2557 441.205 16.2415 441.375 16.2131C441.545 16.179 441.676 16.1534 441.767 16.1364L442.338 18.8381C442.156 18.8949 441.901 18.9602 441.571 19.0341C441.241 19.1136 440.841 19.1619 440.369 19.179C439.494 19.2131 438.727 19.0966 438.068 18.8295C437.415 18.5625 436.906 18.1477 436.543 17.5852C436.179 17.0227 436 16.3125 436.006 15.4545V2.77273ZM452.602 19L449.039 5.90909H452.712L454.741 14.7045H454.86L456.974 5.90909H460.579L462.727 14.6534H462.837L464.832 5.90909H468.496L464.942 19H461.099L458.849 10.767H458.687L456.437 19H452.602ZM470.433 19V5.90909H473.953V8.19318H474.089C474.328 7.38068 474.729 6.76705 475.291 6.35227C475.854 5.93182 476.501 5.72159 477.234 5.72159C477.416 5.72159 477.612 5.73295 477.822 5.75568C478.033 5.77841 478.217 5.80966 478.376 5.84943V9.07102C478.206 9.01989 477.97 8.97443 477.669 8.93466C477.368 8.89489 477.092 8.875 476.842 8.875C476.308 8.875 475.831 8.99148 475.411 9.22443C474.996 9.4517 474.666 9.76989 474.422 10.179C474.183 10.5881 474.064 11.0597 474.064 11.5938V19H470.433ZM485.559 19.2557C484.235 19.2557 483.09 18.9744 482.124 18.4119C481.164 17.8437 480.423 17.054 479.9 16.0426C479.377 15.0256 479.116 13.8466 479.116 12.5057C479.116 11.1534 479.377 9.97159 479.9 8.96023C480.423 7.94318 481.164 7.15341 482.124 6.59091C483.09 6.02273 484.235 5.73864 485.559 5.73864C486.883 5.73864 488.025 6.02273 488.985 6.59091C489.951 7.15341 490.695 7.94318 491.218 8.96023C491.741 9.97159 492.002 11.1534 492.002 12.5057C492.002 13.8466 491.741 15.0256 491.218 16.0426C490.695 17.054 489.951 17.8437 488.985 18.4119C488.025 18.9744 486.883 19.2557 485.559 19.2557ZM485.576 16.4432C486.178 16.4432 486.681 16.2727 487.085 15.9318C487.488 15.5852 487.792 15.1136 487.996 14.517C488.207 13.9205 488.312 13.2415 488.312 12.4801C488.312 11.7188 488.207 11.0398 487.996 10.4432C487.792 9.84659 487.488 9.375 487.085 9.02841C486.681 8.68182 486.178 8.50852 485.576 8.50852C484.968 8.50852 484.457 8.68182 484.042 9.02841C483.633 9.375 483.323 9.84659 483.113 10.4432C482.908 11.0398 482.806 11.7188 482.806 12.4801C482.806 13.2415 482.908 13.9205 483.113 14.517C483.323 15.1136 483.633 15.5852 484.042 15.9318C484.457 16.2727 484.968 16.4432 485.576 16.4432ZM497.994 11.4318V19H494.363V5.90909H497.823V8.21875H497.977C498.266 7.45739 498.752 6.85511 499.434 6.41193C500.116 5.96307 500.942 5.73864 501.914 5.73864C502.823 5.73864 503.616 5.9375 504.292 6.33523C504.968 6.73295 505.494 7.30114 505.869 8.03977C506.244 8.77273 506.431 9.64773 506.431 10.6648V19H502.8V11.3125C502.806 10.5114 502.602 9.88636 502.187 9.4375C501.772 8.98295 501.201 8.75568 500.474 8.75568C499.985 8.75568 499.553 8.8608 499.178 9.07102C498.809 9.28125 498.519 9.58807 498.309 9.99148C498.104 10.3892 497.999 10.8693 497.994 11.4318ZM515.19 24.1818C514.014 24.1818 513.006 24.0199 512.165 23.696C511.33 23.3778 510.665 22.9432 510.17 22.392C509.676 21.8409 509.355 21.2216 509.207 20.5341L512.565 20.0824C512.668 20.3438 512.83 20.5881 513.051 20.8153C513.273 21.0426 513.565 21.2244 513.929 21.3608C514.298 21.5028 514.747 21.5739 515.276 21.5739C516.065 21.5739 516.716 21.3807 517.227 20.9943C517.744 20.6136 518.003 19.9744 518.003 19.0767V16.6818H517.849C517.69 17.0455 517.452 17.3892 517.134 17.7131C516.815 18.0369 516.406 18.3011 515.906 18.5057C515.406 18.7102 514.81 18.8125 514.116 18.8125C513.134 18.8125 512.239 18.5852 511.432 18.1307C510.631 17.6705 509.991 16.9687 509.514 16.0256C509.043 15.0767 508.807 13.8778 508.807 12.429C508.807 10.946 509.048 9.70739 509.531 8.71307C510.014 7.71875 510.656 6.97443 511.457 6.48011C512.264 5.9858 513.148 5.73864 514.108 5.73864C514.841 5.73864 515.455 5.86364 515.949 6.11364C516.443 6.35795 516.841 6.66477 517.142 7.03409C517.449 7.39773 517.685 7.75568 517.849 8.10795H517.986V5.90909H521.591V19.1278C521.591 20.2415 521.318 21.1733 520.773 21.9233C520.227 22.6733 519.472 23.2358 518.506 23.6108C517.545 23.9915 516.44 24.1818 515.19 24.1818ZM515.267 16.0852C515.852 16.0852 516.347 15.9403 516.75 15.6506C517.159 15.3551 517.472 14.9347 517.688 14.3892C517.909 13.8381 518.02 13.179 518.02 12.4119C518.02 11.6449 517.912 10.9801 517.696 10.4176C517.48 9.84943 517.168 9.40909 516.759 9.09659C516.349 8.78409 515.852 8.62784 515.267 8.62784C514.67 8.62784 514.168 8.78977 513.759 9.11364C513.349 9.43182 513.04 9.875 512.83 10.4432C512.619 11.0114 512.514 11.6676 512.514 12.4119C512.514 13.1676 512.619 13.821 512.83 14.3722C513.045 14.9176 513.355 15.3409 513.759 15.642C514.168 15.9375 514.67 16.0852 515.267 16.0852ZM536.998 5.90909V8.63636H529.114V5.90909H536.998ZM530.904 2.77273H534.535V14.9773C534.535 15.3125 534.586 15.5739 534.688 15.7614C534.79 15.9432 534.933 16.071 535.114 16.1449C535.302 16.2187 535.518 16.2557 535.762 16.2557C535.933 16.2557 536.103 16.2415 536.273 16.2131C536.444 16.179 536.575 16.1534 536.665 16.1364L537.237 18.8381C537.055 18.8949 536.799 18.9602 536.469 19.0341C536.14 19.1136 535.739 19.1619 535.268 19.179C534.393 19.2131 533.626 19.0966 532.967 18.8295C532.313 18.5625 531.805 18.1477 531.441 17.5852C531.077 17.0227 530.898 16.3125 530.904 15.4545V2.77273ZM543.275 11.4318V19H539.644V1.54545H543.173V8.21875H543.326C543.621 7.44602 544.099 6.84091 544.758 6.40341C545.417 5.96023 546.244 5.73864 547.238 5.73864C548.147 5.73864 548.94 5.9375 549.616 6.33523C550.298 6.72727 550.826 7.29261 551.201 8.03125C551.582 8.7642 551.769 9.64205 551.763 10.6648V19H548.133V11.3125C548.138 10.5057 547.934 9.87784 547.519 9.42898C547.11 8.98011 546.536 8.75568 545.798 8.75568C545.303 8.75568 544.866 8.8608 544.485 9.07102C544.11 9.28125 543.815 9.58807 543.599 9.99148C543.388 10.3892 543.281 10.8693 543.275 11.4318ZM560.587 19.2557C559.24 19.2557 558.081 18.983 557.109 18.4375C556.143 17.8864 555.399 17.108 554.876 16.1023C554.354 15.0909 554.092 13.8949 554.092 12.5142C554.092 11.1676 554.354 9.9858 554.876 8.96875C555.399 7.9517 556.135 7.15909 557.084 6.59091C558.038 6.02273 559.158 5.73864 560.442 5.73864C561.305 5.73864 562.109 5.87784 562.854 6.15625C563.604 6.42898 564.257 6.84091 564.814 7.39205C565.376 7.94318 565.814 8.63636 566.126 9.47159C566.439 10.3011 566.595 11.2727 566.595 12.3864V13.3835H555.541V11.1335H563.178C563.178 10.6108 563.064 10.1477 562.837 9.74432C562.609 9.34091 562.294 9.02557 561.891 8.7983C561.493 8.56534 561.03 8.44886 560.501 8.44886C559.95 8.44886 559.462 8.5767 559.036 8.83239C558.615 9.08239 558.286 9.42045 558.047 9.84659C557.808 10.267 557.686 10.7358 557.68 11.2528V13.392C557.68 14.0398 557.8 14.5994 558.038 15.071C558.283 15.5426 558.626 15.9062 559.07 16.1619C559.513 16.4176 560.038 16.5455 560.646 16.5455C561.05 16.5455 561.419 16.4886 561.754 16.375C562.089 16.2614 562.376 16.0909 562.615 15.8636C562.854 15.6364 563.036 15.358 563.161 15.0284L566.518 15.25C566.348 16.0568 565.999 16.7614 565.47 17.3636C564.947 17.9602 564.271 18.4261 563.442 18.7614C562.618 19.0909 561.666 19.2557 560.587 19.2557ZM568.964 19V5.90909H572.484V8.19318H572.621C572.859 7.38068 573.26 6.76705 573.822 6.35227C574.385 5.93182 575.033 5.72159 575.766 5.72159C575.947 5.72159 576.143 5.73295 576.354 5.75568C576.564 5.77841 576.749 5.80966 576.908 5.84943V9.07102C576.737 9.01989 576.501 8.97443 576.2 8.93466C575.899 8.89489 575.624 8.875 575.374 8.875C574.839 8.875 574.362 8.99148 573.942 9.22443C573.527 9.4517 573.197 9.76989 572.953 10.179C572.714 10.5881 572.595 11.0597 572.595 11.5938V19H568.964ZM584.141 19.2557C582.795 19.2557 581.636 18.983 580.664 18.4375C579.698 17.8864 578.954 17.108 578.431 16.1023C577.908 15.0909 577.647 13.8949 577.647 12.5142C577.647 11.1676 577.908 9.9858 578.431 8.96875C578.954 7.9517 579.69 7.15909 580.638 6.59091C581.593 6.02273 582.712 5.73864 583.996 5.73864C584.86 5.73864 585.664 5.87784 586.408 6.15625C587.158 6.42898 587.812 6.84091 588.369 7.39205C588.931 7.94318 589.369 8.63636 589.681 9.47159C589.994 10.3011 590.15 11.2727 590.15 12.3864V13.3835H579.096V11.1335H586.732C586.732 10.6108 586.619 10.1477 586.391 9.74432C586.164 9.34091 585.849 9.02557 585.445 8.7983C585.048 8.56534 584.585 8.44886 584.056 8.44886C583.505 8.44886 583.016 8.5767 582.59 8.83239C582.17 9.08239 581.84 9.42045 581.602 9.84659C581.363 10.267 581.241 10.7358 581.235 11.2528V13.392C581.235 14.0398 581.354 14.5994 581.593 15.071C581.837 15.5426 582.181 15.9062 582.624 16.1619C583.067 16.4176 583.593 16.5455 584.201 16.5455C584.604 16.5455 584.974 16.4886 585.309 16.375C585.644 16.2614 585.931 16.0909 586.17 15.8636C586.408 15.6364 586.59 15.358 586.715 15.0284L590.073 15.25C589.903 16.0568 589.553 16.7614 589.025 17.3636C588.502 17.9602 587.826 18.4261 586.996 18.7614C586.173 19.0909 585.221 19.2557 584.141 19.2557ZM594.641 19.2216C594.079 19.2216 593.596 19.0227 593.192 18.625C592.795 18.2216 592.596 17.7386 592.596 17.1761C592.596 16.6193 592.795 16.142 593.192 15.7443C593.596 15.3466 594.079 15.1477 594.641 15.1477C595.187 15.1477 595.664 15.3466 596.073 15.7443C596.482 16.142 596.687 16.6193 596.687 17.1761C596.687 17.5511 596.59 17.8949 596.397 18.2074C596.21 18.5142 595.962 18.7614 595.656 18.9489C595.349 19.1307 595.011 19.2216 594.641 19.2216ZM601.79 19.2216C601.227 19.2216 600.744 19.0227 600.341 18.625C599.943 18.2216 599.744 17.7386 599.744 17.1761C599.744 16.6193 599.943 16.142 600.341 15.7443C600.744 15.3466 601.227 15.1477 601.79 15.1477C602.335 15.1477 602.813 15.3466 603.222 15.7443C603.631 16.142 603.835 16.6193 603.835 17.1761C603.835 17.5511 603.739 17.8949 603.545 18.2074C603.358 18.5142 603.111 18.7614 602.804 18.9489C602.497 19.1307 602.159 19.2216 601.79 19.2216ZM608.938 19.2216C608.376 19.2216 607.893 19.0227 607.489 18.625C607.092 18.2216 606.893 17.7386 606.893 17.1761C606.893 16.6193 607.092 16.142 607.489 15.7443C607.893 15.3466 608.376 15.1477 608.938 15.1477C609.484 15.1477 609.961 15.3466 610.37 15.7443C610.779 16.142 610.984 16.6193 610.984 17.1761C610.984 17.5511 610.887 17.8949 610.694 18.2074C610.506 18.5142 610.259 18.7614 609.952 18.9489C609.646 19.1307 609.308 19.2216 608.938 19.2216ZM188.08 59.5455V77H184.449V59.5455H188.08ZM196.954 77.2557C195.607 77.2557 194.448 76.983 193.477 76.4375C192.511 75.8864 191.766 75.108 191.244 74.1023C190.721 73.0909 190.46 71.8949 190.46 70.5142C190.46 69.1676 190.721 67.9858 191.244 66.9688C191.766 65.9517 192.502 65.1591 193.451 64.5909C194.406 64.0227 195.525 63.7386 196.809 63.7386C197.673 63.7386 198.477 63.8778 199.221 64.1562C199.971 64.429 200.624 64.8409 201.181 65.392C201.744 65.9432 202.181 66.6364 202.494 67.4716C202.806 68.3011 202.962 69.2727 202.962 70.3864V71.3835H191.908V69.1335H199.545C199.545 68.6108 199.431 68.1477 199.204 67.7443C198.977 67.3409 198.661 67.0256 198.258 66.7983C197.86 66.5653 197.397 66.4489 196.869 66.4489C196.317 66.4489 195.829 66.5767 195.403 66.8324C194.982 67.0824 194.653 67.4205 194.414 67.8466C194.175 68.267 194.053 68.7358 194.048 69.2528V71.392C194.048 72.0398 194.167 72.5994 194.406 73.071C194.65 73.5426 194.994 73.9062 195.437 74.1619C195.88 74.4176 196.406 74.5455 197.013 74.5455C197.417 74.5455 197.786 74.4886 198.121 74.375C198.457 74.2614 198.744 74.0909 198.982 73.8636C199.221 73.6364 199.403 73.358 199.528 73.0284L202.886 73.25C202.715 74.0568 202.366 74.7614 201.837 75.3636C201.315 75.9602 200.638 76.4261 199.809 76.7614C198.985 77.0909 198.033 77.2557 196.954 77.2557ZM209.065 77.2472C208.229 77.2472 207.485 77.1023 206.832 76.8125C206.178 76.517 205.661 76.0824 205.281 75.5085C204.906 74.929 204.718 74.2074 204.718 73.3438C204.718 72.6165 204.852 72.0057 205.119 71.5114C205.386 71.017 205.749 70.6193 206.21 70.3182C206.67 70.017 207.192 69.7898 207.778 69.6364C208.369 69.483 208.988 69.375 209.636 69.3125C210.397 69.233 211.011 69.1591 211.477 69.0909C211.942 69.017 212.281 68.9091 212.491 68.767C212.701 68.625 212.806 68.4148 212.806 68.1364V68.0852C212.806 67.5455 212.636 67.1278 212.295 66.8324C211.96 66.5369 211.482 66.3892 210.863 66.3892C210.21 66.3892 209.69 66.5341 209.303 66.8239C208.917 67.108 208.661 67.4659 208.536 67.8977L205.178 67.625C205.349 66.8295 205.684 66.142 206.184 65.5625C206.684 64.9773 207.329 64.5284 208.119 64.2159C208.914 63.8977 209.835 63.7386 210.88 63.7386C211.607 63.7386 212.303 63.8239 212.968 63.9943C213.638 64.1648 214.232 64.429 214.749 64.7869C215.272 65.1449 215.684 65.6051 215.985 66.1676C216.286 66.7244 216.437 67.392 216.437 68.1705V77H212.994V75.1847H212.891C212.681 75.5938 212.4 75.9545 212.048 76.267C211.695 76.5739 211.272 76.8153 210.778 76.9915C210.283 77.1619 209.712 77.2472 209.065 77.2472ZM210.104 74.7415C210.638 74.7415 211.11 74.6364 211.519 74.4261C211.928 74.2102 212.249 73.9205 212.482 73.5568C212.715 73.1932 212.832 72.7812 212.832 72.321V70.9318C212.718 71.0057 212.562 71.0739 212.363 71.1364C212.17 71.1932 211.951 71.2472 211.707 71.2983C211.462 71.3437 211.218 71.3864 210.974 71.4261C210.729 71.4602 210.508 71.4915 210.309 71.5199C209.883 71.5824 209.511 71.6818 209.192 71.8182C208.874 71.9545 208.627 72.1392 208.451 72.3722C208.275 72.5994 208.187 72.8835 208.187 73.2244C208.187 73.7188 208.366 74.0966 208.724 74.358C209.087 74.6136 209.548 74.7415 210.104 74.7415ZM230.989 63.9091L226.413 77H222.322L217.745 63.9091H221.58L224.299 73.2756H224.435L227.146 63.9091H230.989ZM238.391 77.2557C237.045 77.2557 235.886 76.983 234.914 76.4375C233.948 75.8864 233.204 75.108 232.681 74.1023C232.158 73.0909 231.897 71.8949 231.897 70.5142C231.897 69.1676 232.158 67.9858 232.681 66.9688C233.204 65.9517 233.94 65.1591 234.888 64.5909C235.843 64.0227 236.962 63.7386 238.246 63.7386C239.11 63.7386 239.914 63.8778 240.658 64.1562C241.408 64.429 242.062 64.8409 242.619 65.392C243.181 65.9432 243.619 66.6364 243.931 67.4716C244.244 68.3011 244.4 69.2727 244.4 70.3864V71.3835H233.346V69.1335H240.982C240.982 68.6108 240.869 68.1477 240.641 67.7443C240.414 67.3409 240.099 67.0256 239.695 66.7983C239.298 66.5653 238.835 66.4489 238.306 66.4489C237.755 66.4489 237.266 66.5767 236.84 66.8324C236.42 67.0824 236.09 67.4205 235.852 67.8466C235.613 68.267 235.491 68.7358 235.485 69.2528V71.392C235.485 72.0398 235.604 72.5994 235.843 73.071C236.087 73.5426 236.431 73.9062 236.874 74.1619C237.317 74.4176 237.843 74.5455 238.451 74.5455C238.854 74.5455 239.224 74.4886 239.559 74.375C239.894 74.2614 240.181 74.0909 240.42 73.8636C240.658 73.6364 240.84 73.358 240.965 73.0284L244.323 73.25C244.153 74.0568 243.803 74.7614 243.275 75.3636C242.752 75.9602 242.076 76.4261 241.246 76.7614C240.423 77.0909 239.471 77.2557 238.391 77.2557ZM256.057 77.2472C255.222 77.2472 254.477 77.1023 253.824 76.8125C253.17 76.517 252.653 76.0824 252.273 75.5085C251.898 74.929 251.71 74.2074 251.71 73.3438C251.71 72.6165 251.844 72.0057 252.111 71.5114C252.378 71.017 252.741 70.6193 253.202 70.3182C253.662 70.017 254.185 69.7898 254.77 69.6364C255.361 69.483 255.98 69.375 256.628 69.3125C257.389 69.233 258.003 69.1591 258.469 69.0909C258.935 69.017 259.273 68.9091 259.483 68.767C259.693 68.625 259.798 68.4148 259.798 68.1364V68.0852C259.798 67.5455 259.628 67.1278 259.287 66.8324C258.952 66.5369 258.474 66.3892 257.855 66.3892C257.202 66.3892 256.682 66.5341 256.295 66.8239C255.909 67.108 255.653 67.4659 255.528 67.8977L252.17 67.625C252.341 66.8295 252.676 66.142 253.176 65.5625C253.676 64.9773 254.321 64.5284 255.111 64.2159C255.906 63.8977 256.827 63.7386 257.872 63.7386C258.599 63.7386 259.295 63.8239 259.96 63.9943C260.631 64.1648 261.224 64.429 261.741 64.7869C262.264 65.1449 262.676 65.6051 262.977 66.1676C263.278 66.7244 263.429 67.392 263.429 68.1705V77H259.986V75.1847H259.884C259.673 75.5938 259.392 75.9545 259.04 76.267C258.688 76.5739 258.264 76.8153 257.77 76.9915C257.276 77.1619 256.705 77.2472 256.057 77.2472ZM257.097 74.7415C257.631 74.7415 258.102 74.6364 258.511 74.4261C258.92 74.2102 259.241 73.9205 259.474 73.5568C259.707 73.1932 259.824 72.7812 259.824 72.321V70.9318C259.71 71.0057 259.554 71.0739 259.355 71.1364C259.162 71.1932 258.943 71.2472 258.699 71.2983C258.455 71.3437 258.21 71.3864 257.966 71.4261C257.722 71.4602 257.5 71.4915 257.301 71.5199C256.875 71.5824 256.503 71.6818 256.185 71.8182C255.866 71.9545 255.619 72.1392 255.443 72.3722C255.267 72.5994 255.179 72.8835 255.179 73.2244C255.179 73.7188 255.358 74.0966 255.716 74.358C256.08 74.6136 256.54 74.7415 257.097 74.7415ZM271.869 77V59.5455H275.499V66.108H275.61C275.769 65.7557 275.999 65.3977 276.3 65.0341C276.607 64.6648 277.005 64.358 277.494 64.1136C277.988 63.8636 278.602 63.7386 279.335 63.7386C280.289 63.7386 281.17 63.9886 281.977 64.4886C282.783 64.983 283.428 65.7301 283.911 66.7301C284.394 67.7244 284.636 68.9716 284.636 70.4716C284.636 71.9318 284.4 73.1648 283.928 74.1705C283.462 75.1705 282.826 75.929 282.019 76.446C281.218 76.9574 280.32 77.2131 279.326 77.2131C278.621 77.2131 278.022 77.0966 277.528 76.8636C277.039 76.6307 276.638 76.3381 276.326 75.9858C276.013 75.6278 275.775 75.267 275.61 74.9034H275.448V77H271.869ZM275.423 70.4545C275.423 71.233 275.531 71.9119 275.746 72.4915C275.962 73.071 276.275 73.5227 276.684 73.8466C277.093 74.1648 277.59 74.3239 278.175 74.3239C278.766 74.3239 279.266 74.1619 279.675 73.8381C280.085 73.5085 280.394 73.054 280.604 72.4744C280.82 71.8892 280.928 71.2159 280.928 70.4545C280.928 69.6989 280.823 69.0341 280.613 68.4602C280.403 67.8864 280.093 67.4375 279.684 67.1136C279.275 66.7898 278.772 66.6278 278.175 66.6278C277.585 66.6278 277.085 66.7841 276.675 67.0966C276.272 67.4091 275.962 67.8523 275.746 68.4261C275.531 69 275.423 69.6761 275.423 70.4545ZM295.453 71.4261V63.9091H299.084V77H295.598V74.6222H295.462C295.166 75.3892 294.675 76.0057 293.987 76.4716C293.305 76.9375 292.473 77.1705 291.49 77.1705C290.615 77.1705 289.845 76.9716 289.18 76.5739C288.516 76.1761 287.996 75.6108 287.621 74.8778C287.251 74.1449 287.064 73.267 287.058 72.2443V63.9091H290.689V71.5966C290.695 72.3693 290.902 72.9801 291.311 73.429C291.72 73.8778 292.268 74.1023 292.956 74.1023C293.393 74.1023 293.803 74.0028 294.183 73.804C294.564 73.5994 294.871 73.2983 295.104 72.9006C295.342 72.5028 295.459 72.0114 295.453 71.4261ZM307.886 82.1818C306.71 82.1818 305.701 82.0199 304.86 81.696C304.025 81.3778 303.36 80.9432 302.866 80.392C302.371 79.8409 302.05 79.2216 301.903 78.5341L305.261 78.0824C305.363 78.3438 305.525 78.5881 305.746 78.8153C305.968 79.0426 306.261 79.2244 306.624 79.3608C306.994 79.5028 307.442 79.5739 307.971 79.5739C308.761 79.5739 309.411 79.3807 309.923 78.9943C310.44 78.6136 310.698 77.9744 310.698 77.0767V74.6818H310.545C310.386 75.0455 310.147 75.3892 309.829 75.7131C309.511 76.0369 309.102 76.3011 308.602 76.5057C308.102 76.7102 307.505 76.8125 306.812 76.8125C305.829 76.8125 304.934 76.5852 304.127 76.1307C303.326 75.6705 302.687 74.9687 302.21 74.0256C301.738 73.0767 301.502 71.8778 301.502 70.429C301.502 68.946 301.744 67.7074 302.227 66.7131C302.71 65.7187 303.352 64.9744 304.153 64.4801C304.96 63.9858 305.843 63.7386 306.803 63.7386C307.536 63.7386 308.15 63.8636 308.644 64.1136C309.138 64.358 309.536 64.6648 309.837 65.0341C310.144 65.3977 310.38 65.7557 310.545 66.108H310.681V63.9091H314.286V77.1278C314.286 78.2415 314.013 79.1733 313.468 79.9233C312.923 80.6733 312.167 81.2358 311.201 81.6108C310.241 81.9915 309.136 82.1818 307.886 82.1818ZM307.962 74.0852C308.548 74.0852 309.042 73.9403 309.445 73.6506C309.854 73.3551 310.167 72.9347 310.383 72.3892C310.604 71.8381 310.715 71.179 310.715 70.4119C310.715 69.6449 310.607 68.9801 310.391 68.4176C310.175 67.8494 309.863 67.4091 309.454 67.0966C309.045 66.7841 308.548 66.6278 307.962 66.6278C307.366 66.6278 306.863 66.7898 306.454 67.1136C306.045 67.4318 305.735 67.875 305.525 68.4432C305.315 69.0114 305.21 69.6676 305.21 70.4119C305.21 71.1676 305.315 71.821 305.525 72.3722C305.741 72.9176 306.05 73.3409 306.454 73.642C306.863 73.9375 307.366 74.0852 307.962 74.0852ZM322.73 77V63.9091H326.25V66.1932H326.386C326.625 65.3807 327.026 64.767 327.588 64.3523C328.151 63.9318 328.798 63.7216 329.531 63.7216C329.713 63.7216 329.909 63.733 330.119 63.7557C330.33 63.7784 330.514 63.8097 330.673 63.8494V67.071C330.503 67.0199 330.267 66.9744 329.966 66.9347C329.665 66.8949 329.389 66.875 329.139 66.875C328.605 66.875 328.128 66.9915 327.707 67.2244C327.293 67.4517 326.963 67.7699 326.719 68.179C326.48 68.5881 326.361 69.0597 326.361 69.5938V77H322.73ZM337.907 77.2557C336.56 77.2557 335.401 76.983 334.43 76.4375C333.464 75.8864 332.719 75.108 332.197 74.1023C331.674 73.0909 331.413 71.8949 331.413 70.5142C331.413 69.1676 331.674 67.9858 332.197 66.9688C332.719 65.9517 333.455 65.1591 334.404 64.5909C335.359 64.0227 336.478 63.7386 337.762 63.7386C338.626 63.7386 339.43 63.8778 340.174 64.1562C340.924 64.429 341.577 64.8409 342.134 65.392C342.697 65.9432 343.134 66.6364 343.447 67.4716C343.759 68.3011 343.915 69.2727 343.915 70.3864V71.3835H332.862V69.1335H340.498C340.498 68.6108 340.384 68.1477 340.157 67.7443C339.93 67.3409 339.614 67.0256 339.211 66.7983C338.813 66.5653 338.35 66.4489 337.822 66.4489C337.271 66.4489 336.782 66.5767 336.356 66.8324C335.935 67.0824 335.606 67.4205 335.367 67.8466C335.129 68.267 335.006 68.7358 335.001 69.2528V71.392C335.001 72.0398 335.12 72.5994 335.359 73.071C335.603 73.5426 335.947 73.9062 336.39 74.1619C336.833 74.4176 337.359 74.5455 337.967 74.5455C338.37 74.5455 338.739 74.4886 339.075 74.375C339.41 74.2614 339.697 74.0909 339.935 73.8636C340.174 73.6364 340.356 73.358 340.481 73.0284L343.839 73.25C343.668 74.0568 343.319 74.7614 342.79 75.3636C342.268 75.9602 341.592 76.4261 340.762 76.7614C339.938 77.0909 338.987 77.2557 337.907 77.2557ZM346.285 81.9091V63.9091H349.864V66.108H350.026C350.185 65.7557 350.415 65.3977 350.717 65.0341C351.023 64.6648 351.421 64.358 351.91 64.1136C352.404 63.8636 353.018 63.7386 353.751 63.7386C354.705 63.7386 355.586 63.9886 356.393 64.4886C357.2 64.983 357.844 65.7301 358.327 66.7301C358.81 67.7244 359.052 68.9716 359.052 70.4716C359.052 71.9318 358.816 73.1648 358.344 74.1705C357.879 75.1705 357.242 75.929 356.435 76.446C355.634 76.9574 354.737 77.2131 353.742 77.2131C353.038 77.2131 352.438 77.0966 351.944 76.8636C351.455 76.6307 351.055 76.3381 350.742 75.9858C350.43 75.6278 350.191 75.267 350.026 74.9034H349.915V81.9091H346.285ZM349.839 70.4545C349.839 71.233 349.947 71.9119 350.163 72.4915C350.379 73.071 350.691 73.5227 351.1 73.8466C351.509 74.1648 352.006 74.3239 352.592 74.3239C353.183 74.3239 353.683 74.1619 354.092 73.8381C354.501 73.5085 354.81 73.054 355.021 72.4744C355.237 71.8892 355.344 71.2159 355.344 70.4545C355.344 69.6989 355.239 69.0341 355.029 68.4602C354.819 67.8864 354.509 67.4375 354.1 67.1136C353.691 66.7898 353.188 66.6278 352.592 66.6278C352.001 66.6278 351.501 66.7841 351.092 67.0966C350.688 67.4091 350.379 67.8523 350.163 68.4261C349.947 69 349.839 69.6761 349.839 70.4545ZM367.387 77.2557C366.063 77.2557 364.918 76.9744 363.952 76.4119C362.992 75.8437 362.251 75.054 361.728 74.0426C361.205 73.0256 360.944 71.8466 360.944 70.5057C360.944 69.1534 361.205 67.9716 361.728 66.9602C362.251 65.9432 362.992 65.1534 363.952 64.5909C364.918 64.0227 366.063 63.7386 367.387 63.7386C368.711 63.7386 369.853 64.0227 370.813 64.5909C371.779 65.1534 372.523 65.9432 373.046 66.9602C373.569 67.9716 373.83 69.1534 373.83 70.5057C373.83 71.8466 373.569 73.0256 373.046 74.0426C372.523 75.054 371.779 75.8437 370.813 76.4119C369.853 76.9744 368.711 77.2557 367.387 77.2557ZM367.404 74.4432C368.006 74.4432 368.509 74.2727 368.913 73.9318C369.316 73.5852 369.62 73.1136 369.825 72.517C370.035 71.9205 370.14 71.2415 370.14 70.4801C370.14 69.7188 370.035 69.0398 369.825 68.4432C369.62 67.8466 369.316 67.375 368.913 67.0284C368.509 66.6818 368.006 66.5085 367.404 66.5085C366.796 66.5085 366.285 66.6818 365.87 67.0284C365.461 67.375 365.151 67.8466 364.941 68.4432C364.737 69.0398 364.634 69.7188 364.634 70.4801C364.634 71.2415 364.737 71.9205 364.941 72.517C365.151 73.1136 365.461 73.5852 365.87 73.9318C366.285 74.2727 366.796 74.4432 367.404 74.4432ZM376.191 77V63.9091H379.711V66.1932H379.847C380.086 65.3807 380.487 64.767 381.049 64.3523C381.612 63.9318 382.259 63.7216 382.992 63.7216C383.174 63.7216 383.37 63.733 383.58 63.7557C383.79 63.7784 383.975 63.8097 384.134 63.8494V67.071C383.964 67.0199 383.728 66.9744 383.427 66.9347C383.126 66.8949 382.85 66.875 382.6 66.875C382.066 66.875 381.589 66.9915 381.168 67.2244C380.754 67.4517 380.424 67.7699 380.18 68.179C379.941 68.5881 379.822 69.0597 379.822 69.5938V77H376.191ZM393.631 63.9091V66.6364H385.747V63.9091H393.631ZM387.537 60.7727H391.168V72.9773C391.168 73.3125 391.219 73.5739 391.321 73.7614C391.423 73.9432 391.565 74.071 391.747 74.1449C391.935 74.2187 392.151 74.2557 392.395 74.2557C392.565 74.2557 392.736 74.2415 392.906 74.2131C393.077 74.179 393.207 74.1534 393.298 74.1364L393.869 76.8381C393.688 76.8949 393.432 76.9602 393.102 77.0341C392.773 77.1136 392.372 77.1619 391.901 77.179C391.026 77.2131 390.259 77.0966 389.599 76.8295C388.946 76.5625 388.438 76.1477 388.074 75.5852C387.71 75.0227 387.531 74.3125 387.537 73.4545V60.7727ZM401.619 77V59.5455H405.249V66.108H405.36C405.519 65.7557 405.749 65.3977 406.05 65.0341C406.357 64.6648 406.755 64.358 407.244 64.1136C407.738 63.8636 408.352 63.7386 409.085 63.7386C410.039 63.7386 410.92 63.9886 411.727 64.4886C412.533 64.983 413.178 65.7301 413.661 66.7301C414.144 67.7244 414.386 68.9716 414.386 70.4716C414.386 71.9318 414.15 73.1648 413.678 74.1705C413.212 75.1705 412.576 75.929 411.769 76.446C410.968 76.9574 410.07 77.2131 409.076 77.2131C408.371 77.2131 407.772 77.0966 407.278 76.8636C406.789 76.6307 406.388 76.3381 406.076 75.9858C405.763 75.6278 405.525 75.267 405.36 74.9034H405.198V77H401.619ZM405.173 70.4545C405.173 71.233 405.281 71.9119 405.496 72.4915C405.712 73.071 406.025 73.5227 406.434 73.8466C406.843 74.1648 407.34 74.3239 407.925 74.3239C408.516 74.3239 409.016 74.1619 409.425 73.8381C409.835 73.5085 410.144 73.054 410.354 72.4744C410.57 71.8892 410.678 71.2159 410.678 70.4545C410.678 69.6989 410.573 69.0341 410.363 68.4602C410.153 67.8864 409.843 67.4375 409.434 67.1136C409.025 66.7898 408.522 66.6278 407.925 66.6278C407.335 66.6278 406.835 66.7841 406.425 67.0966C406.022 67.4091 405.712 67.8523 405.496 68.4261C405.281 69 405.173 69.6761 405.173 70.4545ZM422.774 77.2557C421.428 77.2557 420.268 76.983 419.297 76.4375C418.331 75.8864 417.587 75.108 417.064 74.1023C416.541 73.0909 416.28 71.8949 416.28 70.5142C416.28 69.1676 416.541 67.9858 417.064 66.9688C417.587 65.9517 418.322 65.1591 419.271 64.5909C420.226 64.0227 421.345 63.7386 422.629 63.7386C423.493 63.7386 424.297 63.8778 425.041 64.1562C425.791 64.429 426.445 64.8409 427.001 65.392C427.564 65.9432 428.001 66.6364 428.314 67.4716C428.626 68.3011 428.783 69.2727 428.783 70.3864V71.3835H417.729V69.1335H425.365C425.365 68.6108 425.251 68.1477 425.024 67.7443C424.797 67.3409 424.482 67.0256 424.078 66.7983C423.68 66.5653 423.217 66.4489 422.689 66.4489C422.138 66.4489 421.649 66.5767 421.223 66.8324C420.803 67.0824 420.473 67.4205 420.234 67.8466C419.996 68.267 419.874 68.7358 419.868 69.2528V71.392C419.868 72.0398 419.987 72.5994 420.226 73.071C420.47 73.5426 420.814 73.9062 421.257 74.1619C421.7 74.4176 422.226 74.5455 422.834 74.5455C423.237 74.5455 423.607 74.4886 423.942 74.375C424.277 74.2614 424.564 74.0909 424.803 73.8636C425.041 73.6364 425.223 73.358 425.348 73.0284L428.706 73.25C428.536 74.0568 428.186 74.7614 427.658 75.3636C427.135 75.9602 426.459 76.4261 425.629 76.7614C424.805 77.0909 423.854 77.2557 422.774 77.2557ZM434.783 59.5455V77H431.152V59.5455H434.783ZM443.606 77.2557C442.282 77.2557 441.137 76.9744 440.171 76.4119C439.211 75.8437 438.469 75.054 437.947 74.0426C437.424 73.0256 437.163 71.8466 437.163 70.5057C437.163 69.1534 437.424 67.9716 437.947 66.9602C438.469 65.9432 439.211 65.1534 440.171 64.5909C441.137 64.0227 442.282 63.7386 443.606 63.7386C444.93 63.7386 446.072 64.0227 447.032 64.5909C447.998 65.1534 448.742 65.9432 449.265 66.9602C449.788 67.9716 450.049 69.1534 450.049 70.5057C450.049 71.8466 449.788 73.0256 449.265 74.0426C448.742 75.054 447.998 75.8437 447.032 76.4119C446.072 76.9744 444.93 77.2557 443.606 77.2557ZM443.623 74.4432C444.225 74.4432 444.728 74.2727 445.131 73.9318C445.535 73.5852 445.839 73.1136 446.043 72.517C446.254 71.9205 446.359 71.2415 446.359 70.4801C446.359 69.7188 446.254 69.0398 446.043 68.4432C445.839 67.8466 445.535 67.375 445.131 67.0284C444.728 66.6818 444.225 66.5085 443.623 66.5085C443.015 66.5085 442.504 66.6818 442.089 67.0284C441.68 67.375 441.37 67.8466 441.16 68.4432C440.955 69.0398 440.853 69.7188 440.853 70.4801C440.853 71.2415 440.955 71.9205 441.16 72.517C441.37 73.1136 441.68 73.5852 442.089 73.9318C442.504 74.2727 443.015 74.4432 443.623 74.4432ZM454.664 77L451.102 63.9091H454.775L456.803 72.7045H456.923L459.036 63.9091H462.641L464.789 72.6534H464.9L466.894 63.9091H470.559L467.005 77H463.161L460.911 68.767H460.749L458.499 77H454.664ZM481.783 77.2472C480.948 77.2472 480.204 77.1023 479.55 76.8125C478.897 76.517 478.38 76.0824 477.999 75.5085C477.624 74.929 477.437 74.2074 477.437 73.3438C477.437 72.6165 477.57 72.0057 477.837 71.5114C478.104 71.017 478.468 70.6193 478.928 70.3182C479.388 70.017 479.911 69.7898 480.496 69.6364C481.087 69.483 481.707 69.375 482.354 69.3125C483.116 69.233 483.729 69.1591 484.195 69.0909C484.661 69.017 484.999 68.9091 485.21 68.767C485.42 68.625 485.525 68.4148 485.525 68.1364V68.0852C485.525 67.5455 485.354 67.1278 485.013 66.8324C484.678 66.5369 484.201 66.3892 483.582 66.3892C482.928 66.3892 482.408 66.5341 482.022 66.8239C481.636 67.108 481.38 67.4659 481.255 67.8977L477.897 67.625C478.067 66.8295 478.403 66.142 478.903 65.5625C479.403 64.9773 480.048 64.5284 480.837 64.2159C481.633 63.8977 482.553 63.7386 483.599 63.7386C484.326 63.7386 485.022 63.8239 485.687 63.9943C486.357 64.1648 486.951 64.429 487.468 64.7869C487.991 65.1449 488.403 65.6051 488.704 66.1676C489.005 66.7244 489.156 67.392 489.156 68.1705V77H485.712V75.1847H485.61C485.4 75.5938 485.119 75.9545 484.766 76.267C484.414 76.5739 483.991 76.8153 483.496 76.9915C483.002 77.1619 482.431 77.2472 481.783 77.2472ZM482.823 74.7415C483.357 74.7415 483.829 74.6364 484.238 74.4261C484.647 74.2102 484.968 73.9205 485.201 73.5568C485.434 73.1932 485.55 72.7812 485.55 72.321V70.9318C485.437 71.0057 485.281 71.0739 485.082 71.1364C484.888 71.1932 484.67 71.2472 484.425 71.2983C484.181 71.3437 483.937 71.3864 483.692 71.4261C483.448 71.4602 483.227 71.4915 483.028 71.5199C482.602 71.5824 482.229 71.6818 481.911 71.8182C481.593 71.9545 481.346 72.1392 481.17 72.3722C480.994 72.5994 480.906 72.8835 480.906 73.2244C480.906 73.7188 481.085 74.0966 481.442 74.358C481.806 74.6136 482.266 74.7415 482.823 74.7415ZM495.603 69.4318V77H491.972V63.9091H495.433V66.2188H495.586C495.876 65.4574 496.362 64.8551 497.043 64.4119C497.725 63.9631 498.552 63.7386 499.523 63.7386C500.433 63.7386 501.225 63.9375 501.901 64.3352C502.577 64.733 503.103 65.3011 503.478 66.0398C503.853 66.7727 504.04 67.6477 504.04 68.6648V77H500.41V69.3125C500.415 68.5114 500.211 67.8864 499.796 67.4375C499.381 66.983 498.81 66.7557 498.083 66.7557C497.594 66.7557 497.163 66.8608 496.788 67.071C496.418 67.2812 496.129 67.5881 495.918 67.9915C495.714 68.3892 495.609 68.8693 495.603 69.4318ZM511.726 77.2131C510.732 77.2131 509.831 76.9574 509.024 76.446C508.223 75.929 507.587 75.1705 507.115 74.1705C506.649 73.1648 506.416 71.9318 506.416 70.4716C506.416 68.9716 506.658 67.7244 507.141 66.7301C507.624 65.7301 508.266 64.983 509.067 64.4886C509.874 63.9886 510.757 63.7386 511.717 63.7386C512.45 63.7386 513.061 63.8636 513.55 64.1136C514.044 64.358 514.442 64.6648 514.743 65.0341C515.05 65.3977 515.283 65.7557 515.442 66.108H515.553V59.5455H519.175V77H515.595V74.9034H515.442C515.271 75.267 515.03 75.6278 514.717 75.9858C514.411 76.3381 514.01 76.6307 513.516 76.8636C513.027 77.0966 512.43 77.2131 511.726 77.2131ZM512.876 74.3239C513.462 74.3239 513.956 74.1648 514.359 73.8466C514.768 73.5227 515.081 73.071 515.297 72.4915C515.518 71.9119 515.629 71.233 515.629 70.4545C515.629 69.6761 515.521 69 515.305 68.4261C515.089 67.8523 514.777 67.4091 514.368 67.0966C513.959 66.7841 513.462 66.6278 512.876 66.6278C512.28 66.6278 511.777 66.7898 511.368 67.1136C510.959 67.4375 510.649 67.8864 510.439 68.4602C510.229 69.0341 510.124 69.6989 510.124 70.4545C510.124 71.2159 510.229 71.8892 510.439 72.4744C510.655 73.054 510.964 73.5085 511.368 73.8381C511.777 74.1619 512.28 74.3239 512.876 74.3239ZM534.678 63.9091V66.6364H526.794V63.9091H534.678ZM528.584 60.7727H532.214V72.9773C532.214 73.3125 532.266 73.5739 532.368 73.7614C532.47 73.9432 532.612 74.071 532.794 74.1449C532.982 74.2187 533.197 74.2557 533.442 74.2557C533.612 74.2557 533.783 74.2415 533.953 74.2131C534.124 74.179 534.254 74.1534 534.345 74.1364L534.916 76.8381C534.734 76.8949 534.479 76.9602 534.149 77.0341C533.82 77.1136 533.419 77.1619 532.947 77.179C532.072 77.2131 531.305 77.0966 530.646 76.8295C529.993 76.5625 529.484 76.1477 529.121 75.5852C528.757 75.0227 528.578 74.3125 528.584 73.4545V60.7727ZM537.043 77V63.9091H540.562V66.1932H540.699C540.938 65.3807 541.338 64.767 541.901 64.3523C542.463 63.9318 543.111 63.7216 543.844 63.7216C544.026 63.7216 544.222 63.733 544.432 63.7557C544.642 63.7784 544.827 63.8097 544.986 63.8494V67.071C544.815 67.0199 544.58 66.9744 544.278 66.9347C543.977 66.8949 543.702 66.875 543.452 66.875C542.918 66.875 542.44 66.9915 542.02 67.2244C541.605 67.4517 541.276 67.7699 541.031 68.179C540.793 68.5881 540.673 69.0597 540.673 69.5938V77H537.043ZM549.503 81.9091C549.043 81.9091 548.611 81.8722 548.207 81.7983C547.81 81.7301 547.48 81.642 547.219 81.5341L548.037 78.8239C548.463 78.9545 548.847 79.0256 549.188 79.0369C549.534 79.0483 549.832 78.9688 550.082 78.7983C550.338 78.6278 550.545 78.3381 550.705 77.929L550.918 77.375L546.222 63.9091H550.04L552.75 73.5227H552.886L555.622 63.9091H559.466L554.378 78.4148C554.134 79.1193 553.801 79.733 553.381 80.2557C552.966 80.7841 552.44 81.1903 551.804 81.4744C551.168 81.7642 550.401 81.9091 549.503 81.9091ZM566.879 77V63.9091H570.398V66.1932H570.535C570.773 65.3807 571.174 64.767 571.737 64.3523C572.299 63.9318 572.947 63.7216 573.68 63.7216C573.862 63.7216 574.058 63.733 574.268 63.7557C574.478 63.7784 574.663 63.8097 574.822 63.8494V67.071C574.651 67.0199 574.415 66.9744 574.114 66.9347C573.813 66.8949 573.538 66.875 573.288 66.875C572.754 66.875 572.276 66.9915 571.856 67.2244C571.441 67.4517 571.112 67.7699 570.867 68.179C570.629 68.5881 570.509 69.0597 570.509 69.5938V77H566.879ZM582.055 77.2557C580.709 77.2557 579.55 76.983 578.578 76.4375C577.612 75.8864 576.868 75.108 576.345 74.1023C575.822 73.0909 575.561 71.8949 575.561 70.5142C575.561 69.1676 575.822 67.9858 576.345 66.9688C576.868 65.9517 577.604 65.1591 578.553 64.5909C579.507 64.0227 580.626 63.7386 581.911 63.7386C582.774 63.7386 583.578 63.8778 584.322 64.1562C585.072 64.429 585.726 64.8409 586.283 65.392C586.845 65.9432 587.283 66.6364 587.595 67.4716C587.908 68.3011 588.064 69.2727 588.064 70.3864V71.3835H577.01V69.1335H584.646C584.646 68.6108 584.533 68.1477 584.305 67.7443C584.078 67.3409 583.763 67.0256 583.359 66.7983C582.962 66.5653 582.499 66.4489 581.97 66.4489C581.419 66.4489 580.93 66.5767 580.504 66.8324C580.084 67.0824 579.754 67.4205 579.516 67.8466C579.277 68.267 579.155 68.7358 579.149 69.2528V71.392C579.149 72.0398 579.268 72.5994 579.507 73.071C579.751 73.5426 580.095 73.9062 580.538 74.1619C580.982 74.4176 581.507 74.5455 582.115 74.5455C582.518 74.5455 582.888 74.4886 583.223 74.375C583.558 74.2614 583.845 74.0909 584.084 73.8636C584.322 73.6364 584.504 73.358 584.629 73.0284L587.987 73.25C587.817 74.0568 587.467 74.7614 586.939 75.3636C586.416 75.9602 585.74 76.4261 584.911 76.7614C584.087 77.0909 583.135 77.2557 582.055 77.2557ZM597.473 63.9091V66.6364H589.393V63.9091H597.473ZM591.243 77V62.9631C591.243 62.0142 591.428 61.2273 591.797 60.6023C592.172 59.9773 592.683 59.5085 593.331 59.196C593.979 58.8835 594.714 58.7273 595.538 58.7273C596.095 58.7273 596.604 58.7699 597.064 58.8551C597.53 58.9403 597.876 59.017 598.104 59.0852L597.456 61.8125C597.314 61.767 597.138 61.7244 596.928 61.6847C596.723 61.6449 596.513 61.625 596.297 61.625C595.763 61.625 595.391 61.75 595.18 62C594.97 62.2443 594.865 62.5881 594.865 63.0312V77H591.243ZM599.691 77V63.9091H603.211V66.1932H603.347C603.586 65.3807 603.987 64.767 604.549 64.3523C605.112 63.9318 605.759 63.7216 606.492 63.7216C606.674 63.7216 606.87 63.733 607.08 63.7557C607.29 63.7784 607.475 63.8097 607.634 63.8494V67.071C607.464 67.0199 607.228 66.9744 606.927 66.9347C606.626 66.8949 606.35 66.875 606.1 66.875C605.566 66.875 605.089 66.9915 604.668 67.2244C604.254 67.4517 603.924 67.7699 603.68 68.179C603.441 68.5881 603.322 69.0597 603.322 69.5938V77H599.691ZM614.868 77.2557C613.521 77.2557 612.362 76.983 611.391 76.4375C610.425 75.8864 609.68 75.108 609.158 74.1023C608.635 73.0909 608.374 71.8949 608.374 70.5142C608.374 69.1676 608.635 67.9858 609.158 66.9688C609.68 65.9517 610.416 65.1591 611.365 64.5909C612.32 64.0227 613.439 63.7386 614.723 63.7386C615.587 63.7386 616.391 63.8778 617.135 64.1562C617.885 64.429 618.538 64.8409 619.095 65.392C619.658 65.9432 620.095 66.6364 620.408 67.4716C620.72 68.3011 620.876 69.2727 620.876 70.3864V71.3835H609.822V69.1335H617.459C617.459 68.6108 617.345 68.1477 617.118 67.7443C616.891 67.3409 616.575 67.0256 616.172 66.7983C615.774 66.5653 615.311 66.4489 614.783 66.4489C614.232 66.4489 613.743 66.5767 613.317 66.8324C612.896 67.0824 612.567 67.4205 612.328 67.8466C612.089 68.267 611.967 68.7358 611.962 69.2528V71.392C611.962 72.0398 612.081 72.5994 612.32 73.071C612.564 73.5426 612.908 73.9062 613.351 74.1619C613.794 74.4176 614.32 74.5455 614.928 74.5455C615.331 74.5455 615.7 74.4886 616.036 74.375C616.371 74.2614 616.658 74.0909 616.896 73.8636C617.135 73.6364 617.317 73.358 617.442 73.0284L620.8 73.25C620.629 74.0568 620.28 74.7614 619.751 75.3636C619.229 75.9602 618.553 76.4261 617.723 76.7614C616.899 77.0909 615.947 77.2557 614.868 77.2557ZM634.138 67.642L630.814 67.8466C630.757 67.5625 630.635 67.3068 630.447 67.0795C630.26 66.8466 630.013 66.6619 629.706 66.5256C629.405 66.3835 629.044 66.3125 628.624 66.3125C628.061 66.3125 627.587 66.4318 627.2 66.6705C626.814 66.9034 626.621 67.2159 626.621 67.608C626.621 67.9205 626.746 68.1847 626.996 68.4006C627.246 68.6165 627.675 68.7898 628.283 68.9205L630.652 69.3977C631.925 69.6591 632.874 70.0795 633.499 70.6591C634.124 71.2386 634.436 72 634.436 72.9432C634.436 73.8011 634.183 74.554 633.678 75.2017C633.178 75.8494 632.49 76.3551 631.615 76.7188C630.746 77.0767 629.743 77.2557 628.607 77.2557C626.874 77.2557 625.493 76.8949 624.464 76.1733C623.442 75.446 622.842 74.4574 622.666 73.2074L626.237 73.0199C626.345 73.5483 626.607 73.9517 627.021 74.2301C627.436 74.5028 627.967 74.6392 628.615 74.6392C629.251 74.6392 629.763 74.517 630.149 74.2727C630.541 74.0227 630.74 73.7017 630.746 73.3097C630.74 72.9801 630.601 72.7102 630.328 72.5C630.055 72.2841 629.635 72.1193 629.067 72.0057L626.8 71.554C625.521 71.2983 624.57 70.8551 623.945 70.2244C623.325 69.5937 623.016 68.7898 623.016 67.8125C623.016 66.9716 623.243 66.2472 623.697 65.6392C624.158 65.0312 624.803 64.5625 625.632 64.233C626.467 63.9034 627.445 63.7386 628.564 63.7386C630.217 63.7386 631.518 64.0881 632.467 64.7869C633.422 65.4858 633.979 66.4375 634.138 67.642ZM640.353 69.4318V77H636.722V59.5455H640.251V66.2188H640.404C640.7 65.446 641.177 64.8409 641.836 64.4034C642.495 63.9602 643.322 63.7386 644.316 63.7386C645.225 63.7386 646.018 63.9375 646.694 64.3352C647.376 64.7273 647.904 65.2926 648.279 66.0312C648.66 66.7642 648.847 67.642 648.842 68.6648V77H645.211V69.3125C645.217 68.5057 645.012 67.8778 644.597 67.429C644.188 66.9801 643.614 66.7557 642.876 66.7557C642.381 66.7557 641.944 66.8608 641.563 67.071C641.188 67.2812 640.893 67.5881 640.677 67.9915C640.467 68.3892 640.359 68.8693 640.353 69.4318ZM651.699 77V63.9091H655.33V77H651.699ZM653.523 62.2216C652.983 62.2216 652.52 62.0426 652.134 61.6847C651.753 61.321 651.562 60.8864 651.562 60.3807C651.562 59.8807 651.753 59.4517 652.134 59.0938C652.52 58.7301 652.983 58.5483 653.523 58.5483C654.063 58.5483 654.523 58.7301 654.903 59.0938C655.29 59.4517 655.483 59.8807 655.483 60.3807C655.483 60.8864 655.29 61.321 654.903 61.6847C654.523 62.0426 654.063 62.2216 653.523 62.2216ZM661.869 69.4318V77H658.238V63.9091H661.698V66.2188H661.852C662.141 65.4574 662.627 64.8551 663.309 64.4119C663.991 63.9631 664.817 63.7386 665.789 63.7386C666.698 63.7386 667.491 63.9375 668.167 64.3352C668.843 64.733 669.369 65.3011 669.744 66.0398C670.119 66.7727 670.306 67.6477 670.306 68.6648V77H666.675V69.3125C666.681 68.5114 666.477 67.8864 666.062 67.4375C665.647 66.983 665.076 66.7557 664.349 66.7557C663.86 66.7557 663.428 66.8608 663.053 67.071C662.684 67.2812 662.394 67.5881 662.184 67.9915C661.979 68.3892 661.874 68.8693 661.869 69.4318ZM679.065 82.1818C677.889 82.1818 676.881 82.0199 676.04 81.696C675.205 81.3778 674.54 80.9432 674.045 80.392C673.551 79.8409 673.23 79.2216 673.082 78.5341L676.44 78.0824C676.543 78.3438 676.705 78.5881 676.926 78.8153C677.148 79.0426 677.44 79.2244 677.804 79.3608C678.173 79.5028 678.622 79.5739 679.151 79.5739C679.94 79.5739 680.591 79.3807 681.102 78.9943C681.619 78.6136 681.878 77.9744 681.878 77.0767V74.6818H681.724C681.565 75.0455 681.327 75.3892 681.009 75.7131C680.69 76.0369 680.281 76.3011 679.781 76.5057C679.281 76.7102 678.685 76.8125 677.991 76.8125C677.009 76.8125 676.114 76.5852 675.307 76.1307C674.506 75.6705 673.866 74.9687 673.389 74.0256C672.918 73.0767 672.682 71.8778 672.682 70.429C672.682 68.946 672.923 67.7074 673.406 66.7131C673.889 65.7187 674.531 64.9744 675.332 64.4801C676.139 63.9858 677.023 63.7386 677.983 63.7386C678.716 63.7386 679.33 63.8636 679.824 64.1136C680.318 64.358 680.716 64.6648 681.017 65.0341C681.324 65.3977 681.56 65.7557 681.724 66.108H681.861V63.9091H685.466V77.1278C685.466 78.2415 685.193 79.1733 684.648 79.9233C684.102 80.6733 683.347 81.2358 682.381 81.6108C681.42 81.9915 680.315 82.1818 679.065 82.1818ZM679.142 74.0852C679.727 74.0852 680.222 73.9403 680.625 73.6506C681.034 73.3551 681.347 72.9347 681.562 72.3892C681.784 71.8381 681.895 71.179 681.895 70.4119C681.895 69.6449 681.787 68.9801 681.571 68.4176C681.355 67.8494 681.043 67.4091 680.634 67.0966C680.224 66.7841 679.727 66.6278 679.142 66.6278C678.545 66.6278 678.043 66.7898 677.634 67.1136C677.224 67.4318 676.915 67.875 676.705 68.4432C676.494 69.0114 676.389 69.6676 676.389 70.4119C676.389 71.1676 676.494 71.821 676.705 72.3722C676.92 72.9176 677.23 73.3409 677.634 73.642C678.043 73.9375 678.545 74.0852 679.142 74.0852ZM700.873 63.9091V66.6364H692.989V63.9091H700.873ZM694.779 60.7727H698.41V72.9773C698.41 73.3125 698.461 73.5739 698.563 73.7614C698.665 73.9432 698.808 74.071 698.989 74.1449C699.177 74.2187 699.393 74.2557 699.637 74.2557C699.808 74.2557 699.978 74.2415 700.148 74.2131C700.319 74.179 700.45 74.1534 700.54 74.1364L701.112 76.8381C700.93 76.8949 700.674 76.9602 700.344 77.0341C700.015 77.1136 699.614 77.1619 699.143 77.179C698.268 77.2131 697.501 77.0966 696.842 76.8295C696.188 76.5625 695.68 76.1477 695.316 75.5852C694.952 75.0227 694.773 74.3125 694.779 73.4545V60.7727ZM707.15 69.4318V77H703.519V59.5455H707.048V66.2188H707.201C707.496 65.446 707.974 64.8409 708.633 64.4034C709.292 63.9602 710.119 63.7386 711.113 63.7386C712.022 63.7386 712.815 63.9375 713.491 64.3352C714.173 64.7273 714.701 65.2926 715.076 66.0312C715.457 66.7642 715.644 67.642 715.638 68.6648V77H712.008V69.3125C712.013 68.5057 711.809 67.8778 711.394 67.429C710.985 66.9801 710.411 66.7557 709.673 66.7557C709.178 66.7557 708.741 66.8608 708.36 67.071C707.985 67.2812 707.69 67.5881 707.474 67.9915C707.263 68.3892 707.156 68.8693 707.15 69.4318ZM724.462 77.2557C723.115 77.2557 721.956 76.983 720.984 76.4375C720.018 75.8864 719.274 75.108 718.751 74.1023C718.229 73.0909 717.967 71.8949 717.967 70.5142C717.967 69.1676 718.229 67.9858 718.751 66.9688C719.274 65.9517 720.01 65.1591 720.959 64.5909C721.913 64.0227 723.033 63.7386 724.317 63.7386C725.18 63.7386 725.984 63.8778 726.729 64.1562C727.479 64.429 728.132 64.8409 728.689 65.392C729.251 65.9432 729.689 66.6364 730.001 67.4716C730.314 68.3011 730.47 69.2727 730.47 70.3864V71.3835H719.416V69.1335H727.053C727.053 68.6108 726.939 68.1477 726.712 67.7443C726.484 67.3409 726.169 67.0256 725.766 66.7983C725.368 66.5653 724.905 66.4489 724.376 66.4489C723.825 66.4489 723.337 66.5767 722.911 66.8324C722.49 67.0824 722.161 67.4205 721.922 67.8466C721.683 68.267 721.561 68.7358 721.555 69.2528V71.392C721.555 72.0398 721.675 72.5994 721.913 73.071C722.158 73.5426 722.501 73.9062 722.945 74.1619C723.388 74.4176 723.913 74.5455 724.521 74.5455C724.925 74.5455 725.294 74.4886 725.629 74.375C725.964 74.2614 726.251 74.0909 726.49 73.8636C726.729 73.6364 726.911 73.358 727.036 73.0284L730.393 73.25C730.223 74.0568 729.874 74.7614 729.345 75.3636C728.822 75.9602 728.146 76.4261 727.317 76.7614C726.493 77.0909 725.541 77.2557 724.462 77.2557ZM184.449 110.909V92.9091H188.028V95.108H188.19C188.349 94.7557 188.58 94.3977 188.881 94.0341C189.188 93.6648 189.585 93.358 190.074 93.1136C190.568 92.8636 191.182 92.7386 191.915 92.7386C192.869 92.7386 193.75 92.9886 194.557 93.4886C195.364 93.983 196.009 94.7301 196.491 95.7301C196.974 96.7244 197.216 97.9716 197.216 99.4716C197.216 100.932 196.98 102.165 196.509 103.17C196.043 104.17 195.406 104.929 194.599 105.446C193.798 105.957 192.901 106.213 191.906 106.213C191.202 106.213 190.602 106.097 190.108 105.864C189.619 105.631 189.219 105.338 188.906 104.986C188.594 104.628 188.355 104.267 188.19 103.903H188.08V110.909H184.449ZM188.003 99.4545C188.003 100.233 188.111 100.912 188.327 101.491C188.543 102.071 188.855 102.523 189.264 102.847C189.673 103.165 190.17 103.324 190.756 103.324C191.347 103.324 191.847 103.162 192.256 102.838C192.665 102.509 192.974 102.054 193.185 101.474C193.401 100.889 193.509 100.216 193.509 99.4545C193.509 98.6989 193.403 98.0341 193.193 97.4602C192.983 96.8864 192.673 96.4375 192.264 96.1136C191.855 95.7898 191.352 95.6278 190.756 95.6278C190.165 95.6278 189.665 95.7841 189.256 96.0966C188.852 96.4091 188.543 96.8523 188.327 97.4261C188.111 98 188.003 98.6761 188.003 99.4545ZM203.369 106.247C202.534 106.247 201.79 106.102 201.136 105.812C200.483 105.517 199.966 105.082 199.585 104.509C199.21 103.929 199.023 103.207 199.023 102.344C199.023 101.616 199.156 101.006 199.423 100.511C199.69 100.017 200.054 99.6193 200.514 99.3182C200.974 99.017 201.497 98.7898 202.082 98.6364C202.673 98.483 203.293 98.375 203.94 98.3125C204.702 98.233 205.315 98.1591 205.781 98.0909C206.247 98.017 206.585 97.9091 206.795 97.767C207.006 97.625 207.111 97.4148 207.111 97.1364V97.0852C207.111 96.5455 206.94 96.1278 206.599 95.8324C206.264 95.5369 205.787 95.3892 205.168 95.3892C204.514 95.3892 203.994 95.5341 203.608 95.8239C203.222 96.108 202.966 96.4659 202.841 96.8977L199.483 96.625C199.653 95.8295 199.989 95.142 200.489 94.5625C200.989 93.9773 201.634 93.5284 202.423 93.2159C203.219 92.8977 204.139 92.7386 205.185 92.7386C205.912 92.7386 206.608 92.8239 207.273 92.9943C207.943 93.1648 208.537 93.429 209.054 93.7869C209.577 94.1449 209.989 94.6051 210.29 95.1676C210.591 95.7244 210.741 96.392 210.741 97.1705V106H207.298V104.185H207.196C206.986 104.594 206.705 104.955 206.352 105.267C206 105.574 205.577 105.815 205.082 105.991C204.588 106.162 204.017 106.247 203.369 106.247ZM204.409 103.741C204.943 103.741 205.415 103.636 205.824 103.426C206.233 103.21 206.554 102.92 206.787 102.557C207.02 102.193 207.136 101.781 207.136 101.321V99.9318C207.023 100.006 206.866 100.074 206.668 100.136C206.474 100.193 206.256 100.247 206.011 100.298C205.767 100.344 205.523 100.386 205.278 100.426C205.034 100.46 204.812 100.491 204.614 100.52C204.188 100.582 203.815 100.682 203.497 100.818C203.179 100.955 202.932 101.139 202.756 101.372C202.58 101.599 202.491 101.884 202.491 102.224C202.491 102.719 202.67 103.097 203.028 103.358C203.392 103.614 203.852 103.741 204.409 103.741ZM219.456 111.182C218.28 111.182 217.271 111.02 216.43 110.696C215.595 110.378 214.93 109.943 214.436 109.392C213.942 108.841 213.621 108.222 213.473 107.534L216.831 107.082C216.933 107.344 217.095 107.588 217.317 107.815C217.538 108.043 217.831 108.224 218.195 108.361C218.564 108.503 219.013 108.574 219.541 108.574C220.331 108.574 220.982 108.381 221.493 107.994C222.01 107.614 222.268 106.974 222.268 106.077V103.682H222.115C221.956 104.045 221.717 104.389 221.399 104.713C221.081 105.037 220.672 105.301 220.172 105.506C219.672 105.71 219.075 105.812 218.382 105.812C217.399 105.812 216.504 105.585 215.697 105.131C214.896 104.67 214.257 103.969 213.78 103.026C213.308 102.077 213.072 100.878 213.072 99.429C213.072 97.946 213.314 96.7074 213.797 95.7131C214.28 94.7187 214.922 93.9744 215.723 93.4801C216.53 92.9858 217.413 92.7386 218.374 92.7386C219.107 92.7386 219.72 92.8636 220.214 93.1136C220.709 93.358 221.107 93.6648 221.408 94.0341C221.714 94.3977 221.95 94.7557 222.115 95.108H222.251V92.9091H225.857V106.128C225.857 107.241 225.584 108.173 225.038 108.923C224.493 109.673 223.737 110.236 222.771 110.611C221.811 110.991 220.706 111.182 219.456 111.182ZM219.533 103.085C220.118 103.085 220.612 102.94 221.016 102.651C221.425 102.355 221.737 101.935 221.953 101.389C222.175 100.838 222.286 100.179 222.286 99.4119C222.286 98.6449 222.178 97.9801 221.962 97.4176C221.746 96.8494 221.433 96.4091 221.024 96.0966C220.615 95.7841 220.118 95.6278 219.533 95.6278C218.936 95.6278 218.433 95.7898 218.024 96.1136C217.615 96.4318 217.305 96.875 217.095 97.4432C216.885 98.0114 216.78 98.6676 216.78 99.4119C216.78 100.168 216.885 100.821 217.095 101.372C217.311 101.918 217.621 102.341 218.024 102.642C218.433 102.937 218.936 103.085 219.533 103.085ZM234.712 106.256C233.365 106.256 232.206 105.983 231.234 105.438C230.268 104.886 229.524 104.108 229.001 103.102C228.479 102.091 228.217 100.895 228.217 99.5142C228.217 98.1676 228.479 96.9858 229.001 95.9688C229.524 94.9517 230.26 94.1591 231.209 93.5909C232.163 93.0227 233.283 92.7386 234.567 92.7386C235.43 92.7386 236.234 92.8778 236.979 93.1562C237.729 93.429 238.382 93.8409 238.939 94.392C239.501 94.9432 239.939 95.6364 240.251 96.4716C240.564 97.3011 240.72 98.2727 240.72 99.3864V100.384H229.666V98.1335H237.303C237.303 97.6108 237.189 97.1477 236.962 96.7443C236.734 96.3409 236.419 96.0256 236.016 95.7983C235.618 95.5653 235.155 95.4489 234.626 95.4489C234.075 95.4489 233.587 95.5767 233.161 95.8324C232.74 96.0824 232.411 96.4205 232.172 96.8466C231.933 97.267 231.811 97.7358 231.805 98.2528V100.392C231.805 101.04 231.925 101.599 232.163 102.071C232.408 102.543 232.751 102.906 233.195 103.162C233.638 103.418 234.163 103.545 234.771 103.545C235.175 103.545 235.544 103.489 235.879 103.375C236.214 103.261 236.501 103.091 236.74 102.864C236.979 102.636 237.161 102.358 237.286 102.028L240.643 102.25C240.473 103.057 240.124 103.761 239.595 104.364C239.072 104.96 238.396 105.426 237.567 105.761C236.743 106.091 235.791 106.256 234.712 106.256Z" fill="url(#paint0_linear_0_1)"/>
<defs>
<linearGradient id="paint0_linear_0_1" x1="807.375" y1="140" x2="373.781" y2="140" gradientUnits="userSpaceOnUse">
<stop stop-color="#FAFAFA"/>
</linearGradient>
</defs>
</svg>
